solid 
   facet normal -2.197194e-002 -9.997586e-001 0.000000e+000
      outer loop
         vertex -6.750000e+000 -1.325000e+001 0.000000e+000
         vertex -6.750000e+000 -1.325000e+001 7.800000e+001
         vertex -6.925745e+000 -1.324614e+001 7.800000e+001
      endloop
   endfacet
   facet normal -2.197194e-002 -9.997586e-001 0.000000e+000
      outer loop
         vertex -6.750000e+000 -1.325000e+001 0.000000e+000
         vertex -6.925745e+000 -1.324614e+001 7.800000e+001
         vertex -6.925745e+000 -1.324614e+001 0.000000e+000
      endloop
   endfacet
   facet normal -2.940147e-001 -9.558009e-001 0.000000e+000
      outer loop
         vertex -6.925745e+000 -1.324614e+001 0.000000e+000
         vertex -6.925745e+000 -1.324614e+001 7.800000e+001
         vertex -8.850626e+000 -1.265402e+001 7.800000e+001
      endloop
   endfacet
   facet normal -2.940147e-001 -9.558009e-001 0.000000e+000
      outer loop
         vertex -6.925745e+000 -1.324614e+001 0.000000e+000
         vertex -8.850626e+000 -1.265402e+001 7.800000e+001
         vertex -8.850626e+000 -1.265402e+001 0.000000e+000
      endloop
   endfacet
   facet normal -7.224739e-001 -6.913982e-001 0.000000e+000
      outer loop
         vertex -8.850626e+000 -1.265402e+001 0.000000e+000
         vertex -8.850626e+000 -1.265402e+001 7.800000e+001
         vertex -1.024303e+001 -1.119904e+001 7.800000e+001
      endloop
   endfacet
   facet normal -7.224739e-001 -6.913982e-001 0.000000e+000
      outer loop
         vertex -8.850626e+000 -1.265402e+001 0.000000e+000
         vertex -1.024303e+001 -1.119904e+001 7.800000e+001
         vertex -1.024303e+001 -1.119904e+001 0.000000e+000
      endloop
   endfacet
   facet normal -9.677957e-001 -2.517369e-001 0.000000e+000
      outer loop
         vertex -1.024303e+001 -1.119904e+001 0.000000e+000
         vertex -1.024303e+001 -1.119904e+001 7.800000e+001
         vertex -1.075000e+001 -9.250000e+000 7.800000e+001
      endloop
   endfacet
   facet normal -9.677957e-001 -2.517369e-001 0.000000e+000
      outer loop
         vertex -1.024303e+001 -1.119904e+001 0.000000e+000
         vertex -1.075000e+001 -9.250000e+000 7.800000e+001
         vertex -1.075000e+001 -9.250000e+000 0.000000e+000
      endloop
   endfacet
   facet normal 0.000000e+000 1.000000e+000 0.000000e+000
      outer loop
         vertex -6.750000e+000 -9.250000e+000 0.000000e+000
         vertex -6.750000e+000 -9.250000e+000 7.000000e+001
         vertex 6.750000e+000 -9.250000e+000 0.000000e+000
      endloop
   endfacet
   facet normal 0.000000e+000 1.000000e+000 0.000000e+000
      outer loop
         vertex 6.750000e+000 -9.250000e+000 0.000000e+000
         vertex -6.750000e+000 -9.250000e+000 7.000000e+001
         vertex 6.750000e+000 -9.250000e+000 7.000000e+001
      endloop
   endfacet
   facet normal 0.000000e+000 0.000000e+000 -1.000000e+000
      outer loop
         vertex 8.699038e+000 -1.274303e+001 0.000000e+000
         vertex 6.750000e+000 -1.325000e+001 0.000000e+000
         vertex 1.015402e+001 -1.135063e+001 0.000000e+000
      endloop
   endfacet
   facet normal 0.000000e+000 0.000000e+000 -1.000000e+000
      outer loop
         vertex 1.015402e+001 -1.135063e+001 0.000000e+000
         vertex 6.750000e+000 -1.325000e+001 0.000000e+000
         vertex 1.074614e+001 -9.425744e+000 0.000000e+000
      endloop
   endfacet
   facet normal 0.000000e+000 0.000000e+000 -1.000000e+000
      outer loop
         vertex 1.074614e+001 -9.425744e+000 0.000000e+000
         vertex 6.750000e+000 -1.325000e+001 0.000000e+000
         vertex -6.750000e+000 -1.325000e+001 0.000000e+000
      endloop
   endfacet
   facet normal 0.000000e+000 0.000000e+000 -1.000000e+000
      outer loop
         vertex 1.074614e+001 -9.425744e+000 0.000000e+000
         vertex -6.750000e+000 -1.325000e+001 0.000000e+000
         vertex 1.075000e+001 -9.250000e+000 0.000000e+000
      endloop
   endfacet
   facet normal 0.000000e+000 0.000000e+000 -1.000000e+000
      outer loop
         vertex 1.075000e+001 -9.250000e+000 0.000000e+000
         vertex -6.750000e+000 -1.325000e+001 0.000000e+000
         vertex -6.925745e+000 -1.324614e+001 0.000000e+000
      endloop
   endfacet
   facet normal 0.000000e+000 0.000000e+000 -1.000000e+000
      outer loop
         vertex 1.075000e+001 -9.250000e+000 0.000000e+000
         vertex -6.925745e+000 -1.324614e+001 0.000000e+000
         vertex -8.850626e+000 -1.265402e+001 0.000000e+000
      endloop
   endfacet
   facet normal 0.000000e+000 0.000000e+000 -1.000000e+000
      outer loop
         vertex 1.075000e+001 -9.250000e+000 0.000000e+000
         vertex -8.850626e+000 -1.265402e+001 0.000000e+000
         vertex 6.750000e+000 -9.250000e+000 0.000000e+000
      endloop
   endfacet
   facet normal 0.000000e+000 0.000000e+000 -1.000000e+000
      outer loop
         vertex 1.075000e+001 -9.250000e+000 0.000000e+000
         vertex 6.750000e+000 -9.250000e+000 0.000000e+000
         vertex 1.075000e+001 1.325000e+001 0.000000e+000
      endloop
   endfacet
   facet normal 0.000000e+000 0.000000e+000 -1.000000e+000
      outer loop
         vertex 1.075000e+001 1.325000e+001 0.000000e+000
         vertex 6.750000e+000 -9.250000e+000 0.000000e+000
         vertex 6.750000e+000 9.250000e+000 0.000000e+000
      endloop
   endfacet
   facet normal 0.000000e+000 0.000000e+000 -1.000000e+000
      outer loop
         vertex 1.075000e+001 1.325000e+001 0.000000e+000
         vertex 6.750000e+000 9.250000e+000 0.000000e+000
         vertex -1.075000e+001 1.325000e+001 0.000000e+000
      endloop
   endfacet
   facet normal 0.000000e+000 0.000000e+000 -1.000000e+000
      outer loop
         vertex -1.075000e+001 1.325000e+001 0.000000e+000
         vertex 6.750000e+000 9.250000e+000 0.000000e+000
         vertex -6.750000e+000 9.250000e+000 0.000000e+000
      endloop
   endfacet
   facet normal 0.000000e+000 0.000000e+000 -1.000000e+000
      outer loop
         vertex -1.075000e+001 1.325000e+001 0.000000e+000
         vertex -6.750000e+000 9.250000e+000 0.000000e+000
         vertex -1.075000e+001 -9.250000e+000 0.000000e+000
      endloop
   endfacet
   facet normal 0.000000e+000 0.000000e+000 -1.000000e+000
      outer loop
         vertex -1.075000e+001 -9.250000e+000 0.000000e+000
         vertex -6.750000e+000 9.250000e+000 0.000000e+000
         vertex -6.750000e+000 -9.250000e+000 0.000000e+000
      endloop
   endfacet
   facet normal 0.000000e+000 0.000000e+000 -1.000000e+000
      outer loop
         vertex -1.075000e+001 -9.250000e+000 0.000000e+000
         vertex -6.750000e+000 -9.250000e+000 0.000000e+000
         vertex -1.024303e+001 -1.119904e+001 0.000000e+000
      endloop
   endfacet
   facet normal 0.000000e+000 0.000000e+000 -1.000000e+000
      outer loop
         vertex -1.024303e+001 -1.119904e+001 0.000000e+000
         vertex -6.750000e+000 -9.250000e+000 0.000000e+000
         vertex 6.750000e+000 -9.250000e+000 0.000000e+000
      endloop
   endfacet
   facet normal 0.000000e+000 0.000000e+000 -1.000000e+000
      outer loop
         vertex -1.024303e+001 -1.119904e+001 0.000000e+000
         vertex 6.750000e+000 -9.250000e+000 0.000000e+000
         vertex -8.850626e+000 -1.265402e+001 0.000000e+000
      endloop
   endfacet
   facet normal -1.000000e+000 0.000000e+000 0.000000e+000
      outer loop
         vertex 6.750000e+000 -9.250000e+000 0.000000e+000
         vertex 6.750000e+000 -9.250000e+000 7.000000e+001
         vertex 6.750000e+000 9.250000e+000 0.000000e+000
      endloop
   endfacet
   facet normal -1.000000e+000 0.000000e+000 0.000000e+000
      outer loop
         vertex 6.750000e+000 9.250000e+000 0.000000e+000
         vertex 6.750000e+000 -9.250000e+000 7.000000e+001
         vertex 6.750000e+000 9.250000e+000 7.000000e+001
      endloop
   endfacet
   facet normal 0.000000e+000 -1.000000e+000 0.000000e+000
      outer loop
         vertex -6.750000e+000 -1.325000e+001 7.800000e+001
         vertex -6.750000e+000 -1.325000e+001 0.000000e+000
         vertex 6.750000e+000 -1.325000e+001 7.800000e+001
      endloop
   endfacet
   facet normal 0.000000e+000 -1.000000e+000 0.000000e+000
      outer loop
         vertex 6.750000e+000 -1.325000e+001 7.800000e+001
         vertex -6.750000e+000 -1.325000e+001 0.000000e+000
         vertex 6.750000e+000 -1.325000e+001 0.000000e+000
      endloop
   endfacet
   facet normal 1.000000e+000 0.000000e+000 0.000000e+000
      outer loop
         vertex 1.075000e+001 -9.250000e+000 7.800000e+001
         vertex 1.075000e+001 -9.250000e+000 0.000000e+000
         vertex 1.075000e+001 1.325000e+001 7.800000e+001
      endloop
   endfacet
   facet normal 1.000000e+000 0.000000e+000 0.000000e+000
      outer loop
         vertex 1.075000e+001 1.325000e+001 7.800000e+001
         vertex 1.075000e+001 -9.250000e+000 0.000000e+000
         vertex 1.075000e+001 1.325000e+001 0.000000e+000
      endloop
   endfacet
   facet normal -1.000000e+000 0.000000e+000 0.000000e+000
      outer loop
         vertex -1.075000e+001 1.325000e+001 7.800000e+001
         vertex -1.075000e+001 1.325000e+001 0.000000e+000
         vertex -1.075000e+001 -9.250000e+000 7.800000e+001
      endloop
   endfacet
   facet normal -1.000000e+000 0.000000e+000 0.000000e+000
      outer loop
         vertex -1.075000e+001 -9.250000e+000 7.800000e+001
         vertex -1.075000e+001 1.325000e+001 0.000000e+000
         vertex -1.075000e+001 -9.250000e+000 0.000000e+000
      endloop
   endfacet
   facet normal 1.000000e+000 0.000000e+000 0.000000e+000
      outer loop
         vertex -6.750000e+000 9.250000e+000 0.000000e+000
         vertex -6.750000e+000 9.250000e+000 7.000000e+001
         vertex -6.750000e+000 -9.250000e+000 0.000000e+000
      endloop
   endfacet
   facet normal 1.000000e+000 0.000000e+000 0.000000e+000
      outer loop
         vertex -6.750000e+000 -9.250000e+000 0.000000e+000
         vertex -6.750000e+000 9.250000e+000 7.000000e+001
         vertex -6.750000e+000 -9.250000e+000 7.000000e+001
      endloop
   endfacet
   facet normal 9.997586e-001 -2.197200e-002 0.000000e+000
      outer loop
         vertex 1.075000e+001 -9.250000e+000 0.000000e+000
         vertex 1.075000e+001 -9.250000e+000 7.800000e+001
         vertex 1.074614e+001 -9.425744e+000 7.800000e+001
      endloop
   endfacet
   facet normal 9.997586e-001 -2.197200e-002 0.000000e+000
      outer loop
         vertex 1.075000e+001 -9.250000e+000 0.000000e+000
         vertex 1.074614e+001 -9.425744e+000 7.800000e+001
         vertex 1.074614e+001 -9.425744e+000 0.000000e+000
      endloop
   endfacet
   facet normal 9.558009e-001 -2.940147e-001 0.000000e+000
      outer loop
         vertex 1.074614e+001 -9.425744e+000 0.000000e+000
         vertex 1.074614e+001 -9.425744e+000 7.800000e+001
         vertex 1.015402e+001 -1.135063e+001 7.800000e+001
      endloop
   endfacet
   facet normal 9.558009e-001 -2.940147e-001 0.000000e+000
      outer loop
         vertex 1.074614e+001 -9.425744e+000 0.000000e+000
         vertex 1.015402e+001 -1.135063e+001 7.800000e+001
         vertex 1.015402e+001 -1.135063e+001 0.000000e+000
      endloop
   endfacet
   facet normal 6.913982e-001 -7.224739e-001 0.000000e+000
      outer loop
         vertex 1.015402e+001 -1.135063e+001 0.000000e+000
         vertex 1.015402e+001 -1.135063e+001 7.800000e+001
         vertex 8.699038e+000 -1.274303e+001 7.800000e+001
      endloop
   endfacet
   facet normal 6.913982e-001 -7.224739e-001 0.000000e+000
      outer loop
         vertex 1.015402e+001 -1.135063e+001 0.000000e+000
         vertex 8.699038e+000 -1.274303e+001 7.800000e+001
         vertex 8.699038e+000 -1.274303e+001 0.000000e+000
      endloop
   endfacet
   facet normal 2.517369e-001 -9.677957e-001 0.000000e+000
      outer loop
         vertex 8.699038e+000 -1.274303e+001 0.000000e+000
         vertex 8.699038e+000 -1.274303e+001 7.800000e+001
         vertex 6.750000e+000 -1.325000e+001 7.800000e+001
      endloop
   endfacet
   facet normal 2.517369e-001 -9.677957e-001 0.000000e+000
      outer loop
         vertex 8.699038e+000 -1.274303e+001 0.000000e+000
         vertex 6.750000e+000 -1.325000e+001 7.800000e+001
         vertex 6.750000e+000 -1.325000e+001 0.000000e+000
      endloop
   endfacet
   facet normal 0.000000e+000 1.000000e+000 0.000000e+000
      outer loop
         vertex 1.075000e+001 1.325000e+001 7.800000e+001
         vertex 1.075000e+001 1.325000e+001 0.000000e+000
         vertex 5.500000e+000 1.325000e+001 7.800000e+001
      endloop
   endfacet
   facet normal 0.000000e+000 1.000000e+000 0.000000e+000
      outer loop
         vertex 5.500000e+000 1.325000e+001 7.800000e+001
         vertex 1.075000e+001 1.325000e+001 0.000000e+000
         vertex 5.500000e+000 1.325000e+001 7.580000e+001
      endloop
   endfacet
   facet normal 0.000000e+000 1.000000e+000 0.000000e+000
      outer loop
         vertex 5.500000e+000 1.325000e+001 7.580000e+001
         vertex 1.075000e+001 1.325000e+001 0.000000e+000
         vertex -1.075000e+001 1.325000e+001 0.000000e+000
      endloop
   endfacet
   facet normal 0.000000e+000 1.000000e+000 0.000000e+000
      outer loop
         vertex 5.500000e+000 1.325000e+001 7.580000e+001
         vertex -1.075000e+001 1.325000e+001 0.000000e+000
         vertex 3.040000e+000 1.325000e+001 7.580000e+001
      endloop
   endfacet
   facet normal 0.000000e+000 1.000000e+000 0.000000e+000
      outer loop
         vertex 3.040000e+000 1.325000e+001 7.580000e+001
         vertex -1.075000e+001 1.325000e+001 0.000000e+000
         vertex 2.040000e+000 1.325000e+001 7.580000e+001
      endloop
   endfacet
   facet normal 0.000000e+000 1.000000e+000 0.000000e+000
      outer loop
         vertex 3.040000e+000 1.325000e+001 7.580000e+001
         vertex 2.040000e+000 1.325000e+001 7.580000e+001
         vertex 3.040000e+000 1.325000e+001 7.680000e+001
      endloop
   endfacet
   facet normal 0.000000e+000 1.000000e+000 0.000000e+000
      outer loop
         vertex 3.040000e+000 1.325000e+001 7.680000e+001
         vertex 2.040000e+000 1.325000e+001 7.580000e+001
         vertex 2.040000e+000 1.325000e+001 7.680000e+001
      endloop
   endfacet
   facet normal 0.000000e+000 1.000000e+000 0.000000e+000
      outer loop
         vertex 2.040000e+000 1.325000e+001 7.580000e+001
         vertex -1.075000e+001 1.325000e+001 0.000000e+000
         vertex 5.000000e-001 1.325000e+001 7.580000e+001
      endloop
   endfacet
   facet normal 0.000000e+000 1.000000e+000 0.000000e+000
      outer loop
         vertex 5.000000e-001 1.325000e+001 7.580000e+001
         vertex -1.075000e+001 1.325000e+001 0.000000e+000
         vertex 5.000000e-001 1.325000e+001 7.680000e+001
      endloop
   endfacet
   facet normal 0.000000e+000 1.000000e+000 0.000000e+000
      outer loop
         vertex 5.000000e-001 1.325000e+001 7.680000e+001
         vertex -1.075000e+001 1.325000e+001 0.000000e+000
         vertex -5.000000e-001 1.325000e+001 7.580000e+001
      endloop
   endfacet
   facet normal 0.000000e+000 1.000000e+000 0.000000e+000
      outer loop
         vertex 5.000000e-001 1.325000e+001 7.680000e+001
         vertex -5.000000e-001 1.325000e+001 7.580000e+001
         vertex -5.000000e-001 1.325000e+001 7.680000e+001
      endloop
   endfacet
   facet normal 0.000000e+000 1.000000e+000 0.000000e+000
      outer loop
         vertex -5.000000e-001 1.325000e+001 7.580000e+001
         vertex -1.075000e+001 1.325000e+001 0.000000e+000
         vertex -2.040000e+000 1.325000e+001 7.580000e+001
      endloop
   endfacet
   facet normal 0.000000e+000 1.000000e+000 0.000000e+000
      outer loop
         vertex -2.040000e+000 1.325000e+001 7.580000e+001
         vertex -1.075000e+001 1.325000e+001 0.000000e+000
         vertex -2.040000e+000 1.325000e+001 7.680000e+001
      endloop
   endfacet
   facet normal 0.000000e+000 1.000000e+000 0.000000e+000
      outer loop
         vertex -2.040000e+000 1.325000e+001 7.680000e+001
         vertex -1.075000e+001 1.325000e+001 0.000000e+000
         vertex -3.040000e+000 1.325000e+001 7.580000e+001
      endloop
   endfacet
   facet normal 0.000000e+000 1.000000e+000 0.000000e+000
      outer loop
         vertex -2.040000e+000 1.325000e+001 7.680000e+001
         vertex -3.040000e+000 1.325000e+001 7.580000e+001
         vertex -3.040000e+000 1.325000e+001 7.680000e+001
      endloop
   endfacet
   facet normal 0.000000e+000 1.000000e+000 0.000000e+000
      outer loop
         vertex -3.040000e+000 1.325000e+001 7.580000e+001
         vertex -1.075000e+001 1.325000e+001 0.000000e+000
         vertex -5.500000e+000 1.325000e+001 7.580000e+001
      endloop
   endfacet
   facet normal 0.000000e+000 1.000000e+000 0.000000e+000
      outer loop
         vertex -5.500000e+000 1.325000e+001 7.580000e+001
         vertex -1.075000e+001 1.325000e+001 0.000000e+000
         vertex -5.500000e+000 1.325000e+001 7.800000e+001
      endloop
   endfacet
   facet normal 0.000000e+000 1.000000e+000 0.000000e+000
      outer loop
         vertex -5.500000e+000 1.325000e+001 7.800000e+001
         vertex -1.075000e+001 1.325000e+001 0.000000e+000
         vertex -1.075000e+001 1.325000e+001 7.800000e+001
      endloop
   endfacet
   facet normal 0.000000e+000 -1.000000e+000 0.000000e+000
      outer loop
         vertex 6.750000e+000 9.250000e+000 0.000000e+000
         vertex 6.750000e+000 9.250000e+000 7.000000e+001
         vertex -6.750000e+000 9.250000e+000 0.000000e+000
      endloop
   endfacet
   facet normal 0.000000e+000 -1.000000e+000 0.000000e+000
      outer loop
         vertex -6.750000e+000 9.250000e+000 0.000000e+000
         vertex 6.750000e+000 9.250000e+000 7.000000e+001
         vertex -6.750000e+000 9.250000e+000 7.000000e+001
      endloop
   endfacet
   facet normal 0.000000e+000 0.000000e+000 -1.000000e+000
      outer loop
         vertex 5.000000e+000 5.250000e+000 7.000000e+001
         vertex -5.000000e+000 5.250000e+000 7.000000e+001
         vertex -6.750000e+000 9.250000e+000 7.000000e+001
      endloop
   endfacet
   facet normal 0.000000e+000 0.000000e+000 -1.000000e+000
      outer loop
         vertex -6.750000e+000 9.250000e+000 7.000000e+001
         vertex -5.000000e+000 5.250000e+000 7.000000e+001
         vertex -6.750000e+000 -9.250000e+000 7.000000e+001
      endloop
   endfacet
   facet normal 0.000000e+000 0.000000e+000 -1.000000e+000
      outer loop
         vertex -6.750000e+000 -9.250000e+000 7.000000e+001
         vertex -5.000000e+000 5.250000e+000 7.000000e+001
         vertex -5.000000e+000 2.550000e+000 7.000000e+001
      endloop
   endfacet
   facet normal 0.000000e+000 0.000000e+000 -1.000000e+000
      outer loop
         vertex -6.750000e+000 -9.250000e+000 7.000000e+001
         vertex -5.000000e+000 2.550000e+000 7.000000e+001
         vertex 6.750000e+000 -9.250000e+000 7.000000e+001
      endloop
   endfacet
   facet normal 0.000000e+000 0.000000e+000 -1.000000e+000
      outer loop
         vertex 6.750000e+000 -9.250000e+000 7.000000e+001
         vertex -5.000000e+000 2.550000e+000 7.000000e+001
         vertex 5.000000e+000 2.550000e+000 7.000000e+001
      endloop
   endfacet
   facet normal 0.000000e+000 0.000000e+000 -1.000000e+000
      outer loop
         vertex 6.750000e+000 -9.250000e+000 7.000000e+001
         vertex 5.000000e+000 2.550000e+000 7.000000e+001
         vertex 6.750000e+000 9.250000e+000 7.000000e+001
      endloop
   endfacet
   facet normal 0.000000e+000 0.000000e+000 -1.000000e+000
      outer loop
         vertex 6.750000e+000 9.250000e+000 7.000000e+001
         vertex 5.000000e+000 2.550000e+000 7.000000e+001
         vertex 5.000000e+000 5.250000e+000 7.000000e+001
      endloop
   endfacet
   facet normal 0.000000e+000 0.000000e+000 -1.000000e+000
      outer loop
         vertex 6.750000e+000 9.250000e+000 7.000000e+001
         vertex 5.000000e+000 5.250000e+000 7.000000e+001
         vertex -6.750000e+000 9.250000e+000 7.000000e+001
      endloop
   endfacet
   facet normal 0.000000e+000 0.000000e+000 1.000000e+000
      outer loop
         vertex 3.040000e+000 1.325000e+001 7.580000e+001
         vertex 3.040000e+000 5.250000e+000 7.580000e+001
         vertex 5.500000e+000 1.325000e+001 7.580000e+001
      endloop
   endfacet
   facet normal 0.000000e+000 0.000000e+000 1.000000e+000
      outer loop
         vertex 5.500000e+000 1.325000e+001 7.580000e+001
         vertex 3.040000e+000 5.250000e+000 7.580000e+001
         vertex 5.000000e+000 5.250000e+000 7.580000e+001
      endloop
   endfacet
   facet normal 0.000000e+000 0.000000e+000 1.000000e+000
      outer loop
         vertex 5.500000e+000 1.325000e+001 7.580000e+001
         vertex 5.000000e+000 5.250000e+000 7.580000e+001
         vertex 5.500000e+000 2.550000e+000 7.580000e+001
      endloop
   endfacet
   facet normal 0.000000e+000 0.000000e+000 1.000000e+000
      outer loop
         vertex 5.500000e+000 2.550000e+000 7.580000e+001
         vertex 5.000000e+000 5.250000e+000 7.580000e+001
         vertex 5.000000e+000 2.550000e+000 7.580000e+001
      endloop
   endfacet
   facet normal 0.000000e+000 -1.000000e+000 0.000000e+000
      outer loop
         vertex 5.000000e+000 5.250000e+000 7.000000e+001
         vertex 5.000000e+000 5.250000e+000 7.580000e+001
         vertex -5.000000e+000 5.250000e+000 7.000000e+001
      endloop
   endfacet
   facet normal 0.000000e+000 -1.000000e+000 0.000000e+000
      outer loop
         vertex -5.000000e+000 5.250000e+000 7.000000e+001
         vertex 5.000000e+000 5.250000e+000 7.580000e+001
         vertex 3.040000e+000 5.250000e+000 7.580000e+001
      endloop
   endfacet
   facet normal 0.000000e+000 -1.000000e+000 0.000000e+000
      outer loop
         vertex -5.000000e+000 5.250000e+000 7.580000e+001
         vertex -5.000000e+000 5.250000e+000 7.000000e+001
         vertex -3.040000e+000 5.250000e+000 7.580000e+001
      endloop
   endfacet
   facet normal 0.000000e+000 -1.000000e+000 0.000000e+000
      outer loop
         vertex -3.040000e+000 5.250000e+000 7.580000e+001
         vertex -5.000000e+000 5.250000e+000 7.000000e+001
         vertex -2.040000e+000 5.250000e+000 7.580000e+001
      endloop
   endfacet
   facet normal 0.000000e+000 -1.000000e+000 0.000000e+000
      outer loop
         vertex -3.040000e+000 5.250000e+000 7.580000e+001
         vertex -2.040000e+000 5.250000e+000 7.580000e+001
         vertex -2.040000e+000 5.250000e+000 7.680000e+001
      endloop
   endfacet
   facet normal 0.000000e+000 -1.000000e+000 0.000000e+000
      outer loop
         vertex -3.040000e+000 5.250000e+000 7.580000e+001
         vertex -2.040000e+000 5.250000e+000 7.680000e+001
         vertex -3.040000e+000 5.250000e+000 7.680000e+001
      endloop
   endfacet
   facet normal 0.000000e+000 -1.000000e+000 0.000000e+000
      outer loop
         vertex -2.040000e+000 5.250000e+000 7.580000e+001
         vertex -5.000000e+000 5.250000e+000 7.000000e+001
         vertex -5.000000e-001 5.250000e+000 7.580000e+001
      endloop
   endfacet
   facet normal 0.000000e+000 -1.000000e+000 0.000000e+000
      outer loop
         vertex -5.000000e-001 5.250000e+000 7.580000e+001
         vertex -5.000000e+000 5.250000e+000 7.000000e+001
         vertex 5.000000e-001 5.250000e+000 7.580000e+001
      endloop
   endfacet
   facet normal 0.000000e+000 -1.000000e+000 0.000000e+000
      outer loop
         vertex -5.000000e-001 5.250000e+000 7.580000e+001
         vertex 5.000000e-001 5.250000e+000 7.580000e+001
         vertex 5.000000e-001 5.250000e+000 7.680000e+001
      endloop
   endfacet
   facet normal 0.000000e+000 -1.000000e+000 0.000000e+000
      outer loop
         vertex -5.000000e-001 5.250000e+000 7.580000e+001
         vertex 5.000000e-001 5.250000e+000 7.680000e+001
         vertex -5.000000e-001 5.250000e+000 7.680000e+001
      endloop
   endfacet
   facet normal 0.000000e+000 -1.000000e+000 0.000000e+000
      outer loop
         vertex 5.000000e-001 5.250000e+000 7.580000e+001
         vertex -5.000000e+000 5.250000e+000 7.000000e+001
         vertex 2.040000e+000 5.250000e+000 7.580000e+001
      endloop
   endfacet
   facet normal 0.000000e+000 -1.000000e+000 0.000000e+000
      outer loop
         vertex 2.040000e+000 5.250000e+000 7.580000e+001
         vertex -5.000000e+000 5.250000e+000 7.000000e+001
         vertex 3.040000e+000 5.250000e+000 7.580000e+001
      endloop
   endfacet
   facet normal 0.000000e+000 -1.000000e+000 0.000000e+000
      outer loop
         vertex 2.040000e+000 5.250000e+000 7.580000e+001
         vertex 3.040000e+000 5.250000e+000 7.580000e+001
         vertex 3.040000e+000 5.250000e+000 7.680000e+001
      endloop
   endfacet
   facet normal 0.000000e+000 -1.000000e+000 0.000000e+000
      outer loop
         vertex 2.040000e+000 5.250000e+000 7.580000e+001
         vertex 3.040000e+000 5.250000e+000 7.680000e+001
         vertex 2.040000e+000 5.250000e+000 7.680000e+001
      endloop
   endfacet
   facet normal 0.000000e+000 0.000000e+000 1.000000e+000
      outer loop
         vertex 2.040000e+000 1.325000e+001 7.580000e+001
         vertex 5.000000e-001 1.325000e+001 7.580000e+001
         vertex 2.040000e+000 5.250000e+000 7.580000e+001
      endloop
   endfacet
   facet normal 0.000000e+000 0.000000e+000 1.000000e+000
      outer loop
         vertex 2.040000e+000 5.250000e+000 7.580000e+001
         vertex 5.000000e-001 1.325000e+001 7.580000e+001
         vertex 5.000000e-001 5.250000e+000 7.580000e+001
      endloop
   endfacet
   facet normal 1.000000e+000 0.000000e+000 0.000000e+000
      outer loop
         vertex -5.000000e+000 5.250000e+000 7.000000e+001
         vertex -5.000000e+000 5.250000e+000 7.580000e+001
         vertex -5.000000e+000 2.550000e+000 7.000000e+001
      endloop
   endfacet
   facet normal 1.000000e+000 0.000000e+000 0.000000e+000
      outer loop
         vertex -5.000000e+000 2.550000e+000 7.000000e+001
         vertex -5.000000e+000 5.250000e+000 7.580000e+001
         vertex -5.000000e+000 2.550000e+000 7.580000e+001
      endloop
   endfacet
   facet normal 0.000000e+000 1.000000e+000 0.000000e+000
      outer loop
         vertex 5.500000e+000 2.550000e+000 7.580000e+001
         vertex 5.000000e+000 2.550000e+000 7.580000e+001
         vertex 5.500000e+000 2.550000e+000 7.800000e+001
      endloop
   endfacet
   facet normal 0.000000e+000 1.000000e+000 0.000000e+000
      outer loop
         vertex 5.500000e+000 2.550000e+000 7.800000e+001
         vertex 5.000000e+000 2.550000e+000 7.580000e+001
         vertex -5.500000e+000 2.550000e+000 7.800000e+001
      endloop
   endfacet
   facet normal 0.000000e+000 1.000000e+000 0.000000e+000
      outer loop
         vertex -5.500000e+000 2.550000e+000 7.800000e+001
         vertex 5.000000e+000 2.550000e+000 7.580000e+001
         vertex 5.000000e+000 2.550000e+000 7.000000e+001
      endloop
   endfacet
   facet normal 0.000000e+000 1.000000e+000 0.000000e+000
      outer loop
         vertex -5.500000e+000 2.550000e+000 7.800000e+001
         vertex 5.000000e+000 2.550000e+000 7.000000e+001
         vertex -5.000000e+000 2.550000e+000 7.580000e+001
      endloop
   endfacet
   facet normal 0.000000e+000 1.000000e+000 0.000000e+000
      outer loop
         vertex -5.500000e+000 2.550000e+000 7.800000e+001
         vertex -5.000000e+000 2.550000e+000 7.580000e+001
         vertex -5.500000e+000 2.550000e+000 7.580000e+001
      endloop
   endfacet
   facet normal 0.000000e+000 1.000000e+000 0.000000e+000
      outer loop
         vertex 5.000000e+000 2.550000e+000 7.000000e+001
         vertex -5.000000e+000 2.550000e+000 7.000000e+001
         vertex -5.000000e+000 2.550000e+000 7.580000e+001
      endloop
   endfacet
   facet normal 0.000000e+000 0.000000e+000 1.000000e+000
      outer loop
         vertex -5.000000e-001 1.325000e+001 7.580000e+001
         vertex -2.040000e+000 1.325000e+001 7.580000e+001
         vertex -5.000000e-001 5.250000e+000 7.580000e+001
      endloop
   endfacet
   facet normal 0.000000e+000 0.000000e+000 1.000000e+000
      outer loop
         vertex -5.000000e-001 5.250000e+000 7.580000e+001
         vertex -2.040000e+000 1.325000e+001 7.580000e+001
         vertex -2.040000e+000 5.250000e+000 7.580000e+001
      endloop
   endfacet
   facet normal 0.000000e+000 0.000000e+000 1.000000e+000
      outer loop
         vertex -3.040000e+000 5.250000e+000 7.580000e+001
         vertex -3.040000e+000 1.325000e+001 7.580000e+001
         vertex -5.000000e+000 5.250000e+000 7.580000e+001
      endloop
   endfacet
   facet normal 0.000000e+000 0.000000e+000 1.000000e+000
      outer loop
         vertex -5.000000e+000 5.250000e+000 7.580000e+001
         vertex -3.040000e+000 1.325000e+001 7.580000e+001
         vertex -5.500000e+000 1.325000e+001 7.580000e+001
      endloop
   endfacet
   facet normal 0.000000e+000 0.000000e+000 1.000000e+000
      outer loop
         vertex -5.000000e+000 5.250000e+000 7.580000e+001
         vertex -5.500000e+000 1.325000e+001 7.580000e+001
         vertex -5.000000e+000 2.550000e+000 7.580000e+001
      endloop
   endfacet
   facet normal 0.000000e+000 0.000000e+000 1.000000e+000
      outer loop
         vertex -5.000000e+000 2.550000e+000 7.580000e+001
         vertex -5.500000e+000 1.325000e+001 7.580000e+001
         vertex -5.500000e+000 2.550000e+000 7.580000e+001
      endloop
   endfacet
   facet normal -1.000000e+000 0.000000e+000 0.000000e+000
      outer loop
         vertex 5.000000e+000 2.550000e+000 7.000000e+001
         vertex 5.000000e+000 2.550000e+000 7.580000e+001
         vertex 5.000000e+000 5.250000e+000 7.000000e+001
      endloop
   endfacet
   facet normal -1.000000e+000 0.000000e+000 0.000000e+000
      outer loop
         vertex 5.000000e+000 5.250000e+000 7.000000e+001
         vertex 5.000000e+000 2.550000e+000 7.580000e+001
         vertex 5.000000e+000 5.250000e+000 7.580000e+001
      endloop
   endfacet
   facet normal 1.000000e+000 0.000000e+000 0.000000e+000
      outer loop
         vertex -5.500000e+000 2.550000e+000 7.800000e+001
         vertex -5.500000e+000 2.550000e+000 7.580000e+001
         vertex -5.500000e+000 1.325000e+001 7.800000e+001
      endloop
   endfacet
   facet normal 1.000000e+000 0.000000e+000 0.000000e+000
      outer loop
         vertex -5.500000e+000 1.325000e+001 7.800000e+001
         vertex -5.500000e+000 2.550000e+000 7.580000e+001
         vertex -5.500000e+000 1.325000e+001 7.580000e+001
      endloop
   endfacet
   facet normal -1.000000e+000 0.000000e+000 0.000000e+000
      outer loop
         vertex 5.500000e+000 1.325000e+001 7.800000e+001
         vertex 5.500000e+000 1.325000e+001 7.580000e+001
         vertex 5.500000e+000 2.550000e+000 7.800000e+001
      endloop
   endfacet
   facet normal -1.000000e+000 0.000000e+000 0.000000e+000
      outer loop
         vertex 5.500000e+000 2.550000e+000 7.800000e+001
         vertex 5.500000e+000 1.325000e+001 7.580000e+001
         vertex 5.500000e+000 2.550000e+000 7.580000e+001
      endloop
   endfacet
   facet normal 0.000000e+000 0.000000e+000 1.000000e+000
      outer loop
         vertex 1.074614e+001 -9.425744e+000 7.800000e+001
         vertex 1.075000e+001 -9.250000e+000 7.800000e+001
         vertex 1.015402e+001 -1.135063e+001 7.800000e+001
      endloop
   endfacet
   facet normal 0.000000e+000 0.000000e+000 1.000000e+000
      outer loop
         vertex 1.015402e+001 -1.135063e+001 7.800000e+001
         vertex 1.075000e+001 -9.250000e+000 7.800000e+001
         vertex 1.075000e+001 1.325000e+001 7.800000e+001
      endloop
   endfacet
   facet normal 0.000000e+000 0.000000e+000 1.000000e+000
      outer loop
         vertex 1.015402e+001 -1.135063e+001 7.800000e+001
         vertex 1.075000e+001 1.325000e+001 7.800000e+001
         vertex 8.699038e+000 -1.274303e+001 7.800000e+001
      endloop
   endfacet
   facet normal 0.000000e+000 0.000000e+000 1.000000e+000
      outer loop
         vertex 8.699038e+000 -1.274303e+001 7.800000e+001
         vertex 1.075000e+001 1.325000e+001 7.800000e+001
         vertex 5.500000e+000 1.325000e+001 7.800000e+001
      endloop
   endfacet
   facet normal 0.000000e+000 0.000000e+000 1.000000e+000
      outer loop
         vertex 8.699038e+000 -1.274303e+001 7.800000e+001
         vertex 5.500000e+000 1.325000e+001 7.800000e+001
         vertex 6.750000e+000 -1.325000e+001 7.800000e+001
      endloop
   endfacet
   facet normal 0.000000e+000 0.000000e+000 1.000000e+000
      outer loop
         vertex 6.750000e+000 -1.325000e+001 7.800000e+001
         vertex 5.500000e+000 1.325000e+001 7.800000e+001
         vertex 5.500000e+000 2.550000e+000 7.800000e+001
      endloop
   endfacet
   facet normal 0.000000e+000 0.000000e+000 1.000000e+000
      outer loop
         vertex 6.750000e+000 -1.325000e+001 7.800000e+001
         vertex 5.500000e+000 2.550000e+000 7.800000e+001
         vertex -6.750000e+000 -1.325000e+001 7.800000e+001
      endloop
   endfacet
   facet normal 0.000000e+000 0.000000e+000 1.000000e+000
      outer loop
         vertex -6.750000e+000 -1.325000e+001 7.800000e+001
         vertex 5.500000e+000 2.550000e+000 7.800000e+001
         vertex -5.500000e+000 2.550000e+000 7.800000e+001
      endloop
   endfacet
   facet normal 0.000000e+000 0.000000e+000 1.000000e+000
      outer loop
         vertex -6.750000e+000 -1.325000e+001 7.800000e+001
         vertex -5.500000e+000 2.550000e+000 7.800000e+001
         vertex -6.925745e+000 -1.324614e+001 7.800000e+001
      endloop
   endfacet
   facet normal 0.000000e+000 0.000000e+000 1.000000e+000
      outer loop
         vertex -6.925745e+000 -1.324614e+001 7.800000e+001
         vertex -5.500000e+000 2.550000e+000 7.800000e+001
         vertex -5.500000e+000 1.325000e+001 7.800000e+001
      endloop
   endfacet
   facet normal 0.000000e+000 0.000000e+000 1.000000e+000
      outer loop
         vertex -6.925745e+000 -1.324614e+001 7.800000e+001
         vertex -5.500000e+000 1.325000e+001 7.800000e+001
         vertex -8.850626e+000 -1.265402e+001 7.800000e+001
      endloop
   endfacet
   facet normal 0.000000e+000 0.000000e+000 1.000000e+000
      outer loop
         vertex -8.850626e+000 -1.265402e+001 7.800000e+001
         vertex -5.500000e+000 1.325000e+001 7.800000e+001
         vertex -1.075000e+001 1.325000e+001 7.800000e+001
      endloop
   endfacet
   facet normal 0.000000e+000 0.000000e+000 1.000000e+000
      outer loop
         vertex -8.850626e+000 -1.265402e+001 7.800000e+001
         vertex -1.075000e+001 1.325000e+001 7.800000e+001
         vertex -1.024303e+001 -1.119904e+001 7.800000e+001
      endloop
   endfacet
   facet normal 0.000000e+000 0.000000e+000 1.000000e+000
      outer loop
         vertex -1.024303e+001 -1.119904e+001 7.800000e+001
         vertex -1.075000e+001 1.325000e+001 7.800000e+001
         vertex -1.075000e+001 -9.250000e+000 7.800000e+001
      endloop
   endfacet
   facet normal 0.000000e+000 0.000000e+000 1.000000e+000
      outer loop
         vertex 2.040000e+000 5.250000e+000 7.680000e+001
         vertex 3.040000e+000 5.250000e+000 7.680000e+001
         vertex 2.040000e+000 1.325000e+001 7.680000e+001
      endloop
   endfacet
   facet normal 0.000000e+000 0.000000e+000 1.000000e+000
      outer loop
         vertex 2.040000e+000 1.325000e+001 7.680000e+001
         vertex 3.040000e+000 5.250000e+000 7.680000e+001
         vertex 3.040000e+000 1.325000e+001 7.680000e+001
      endloop
   endfacet
   facet normal 1.000000e+000 0.000000e+000 0.000000e+000
      outer loop
         vertex 5.000000e-001 5.250000e+000 7.680000e+001
         vertex 5.000000e-001 5.250000e+000 7.580000e+001
         vertex 5.000000e-001 1.325000e+001 7.680000e+001
      endloop
   endfacet
   facet normal 1.000000e+000 0.000000e+000 0.000000e+000
      outer loop
         vertex 5.000000e-001 1.325000e+001 7.680000e+001
         vertex 5.000000e-001 5.250000e+000 7.580000e+001
         vertex 5.000000e-001 1.325000e+001 7.580000e+001
      endloop
   endfacet
   facet normal -1.000000e+000 0.000000e+000 0.000000e+000
      outer loop
         vertex 2.040000e+000 1.325000e+001 7.680000e+001
         vertex 2.040000e+000 1.325000e+001 7.580000e+001
         vertex 2.040000e+000 5.250000e+000 7.680000e+001
      endloop
   endfacet
   facet normal -1.000000e+000 0.000000e+000 0.000000e+000
      outer loop
         vertex 2.040000e+000 5.250000e+000 7.680000e+001
         vertex 2.040000e+000 1.325000e+001 7.580000e+001
         vertex 2.040000e+000 5.250000e+000 7.580000e+001
      endloop
   endfacet
   facet normal 1.000000e+000 0.000000e+000 0.000000e+000
      outer loop
         vertex 3.040000e+000 5.250000e+000 7.680000e+001
         vertex 3.040000e+000 5.250000e+000 7.580000e+001
         vertex 3.040000e+000 1.325000e+001 7.680000e+001
      endloop
   endfacet
   facet normal 1.000000e+000 0.000000e+000 0.000000e+000
      outer loop
         vertex 3.040000e+000 1.325000e+001 7.680000e+001
         vertex 3.040000e+000 5.250000e+000 7.580000e+001
         vertex 3.040000e+000 1.325000e+001 7.580000e+001
      endloop
   endfacet
   facet normal -1.000000e+000 0.000000e+000 0.000000e+000
      outer loop
         vertex -5.000000e-001 1.325000e+001 7.680000e+001
         vertex -5.000000e-001 1.325000e+001 7.580000e+001
         vertex -5.000000e-001 5.250000e+000 7.680000e+001
      endloop
   endfacet
   facet normal -1.000000e+000 0.000000e+000 0.000000e+000
      outer loop
         vertex -5.000000e-001 5.250000e+000 7.680000e+001
         vertex -5.000000e-001 1.325000e+001 7.580000e+001
         vertex -5.000000e-001 5.250000e+000 7.580000e+001
      endloop
   endfacet
   facet normal 0.000000e+000 0.000000e+000 1.000000e+000
      outer loop
         vertex -5.000000e-001 5.250000e+000 7.680000e+001
         vertex 5.000000e-001 5.250000e+000 7.680000e+001
         vertex -5.000000e-001 1.325000e+001 7.680000e+001
      endloop
   endfacet
   facet normal 0.000000e+000 0.000000e+000 1.000000e+000
      outer loop
         vertex -5.000000e-001 1.325000e+001 7.680000e+001
         vertex 5.000000e-001 5.250000e+000 7.680000e+001
         vertex 5.000000e-001 1.325000e+001 7.680000e+001
      endloop
   endfacet
   facet normal 0.000000e+000 0.000000e+000 1.000000e+000
      outer loop
         vertex -3.040000e+000 5.250000e+000 7.680000e+001
         vertex -2.040000e+000 5.250000e+000 7.680000e+001
         vertex -3.040000e+000 1.325000e+001 7.680000e+001
      endloop
   endfacet
   facet normal 0.000000e+000 0.000000e+000 1.000000e+000
      outer loop
         vertex -3.040000e+000 1.325000e+001 7.680000e+001
         vertex -2.040000e+000 5.250000e+000 7.680000e+001
         vertex -2.040000e+000 1.325000e+001 7.680000e+001
      endloop
   endfacet
   facet normal -1.000000e+000 0.000000e+000 0.000000e+000
      outer loop
         vertex -3.040000e+000 1.325000e+001 7.680000e+001
         vertex -3.040000e+000 1.325000e+001 7.580000e+001
         vertex -3.040000e+000 5.250000e+000 7.680000e+001
      endloop
   endfacet
   facet normal -1.000000e+000 0.000000e+000 0.000000e+000
      outer loop
         vertex -3.040000e+000 5.250000e+000 7.680000e+001
         vertex -3.040000e+000 1.325000e+001 7.580000e+001
         vertex -3.040000e+000 5.250000e+000 7.580000e+001
      endloop
   endfacet
   facet normal 1.000000e+000 0.000000e+000 0.000000e+000
      outer loop
         vertex -2.040000e+000 5.250000e+000 7.680000e+001
         vertex -2.040000e+000 5.250000e+000 7.580000e+001
         vertex -2.040000e+000 1.325000e+001 7.680000e+001
      endloop
   endfacet
   facet normal 1.000000e+000 0.000000e+000 0.000000e+000
      outer loop
         vertex -2.040000e+000 1.325000e+001 7.680000e+001
         vertex -2.040000e+000 5.250000e+000 7.580000e+001
         vertex -2.040000e+000 1.325000e+001 7.580000e+001
      endloop
   endfacet
endsolid
